<svg width="22" height="22" viewBox="0 0 22 22" fill="none" xmlns="http://www.w3.org/2000/svg">
<mask id="path-1-inside-1_3_505" fill="white">
<path d="M20.5312 18.8438C21.1172 19.4688 21.1172 20.4453 20.5312 21.0703C19.9062 21.6562 18.9297 21.6562 18.3047 21.0703L13.6562 16.3828C12.0547 17.4375 10.1016 17.9844 7.99219 17.7109C4.39844 17.2031 1.50781 14.2734 1.03906 10.7188C0.375 5.40625 4.86719 0.914062 10.1797 1.57812C13.7344 2.04688 16.6641 4.9375 17.1719 8.53125C17.4453 10.6406 16.8984 12.5938 15.8438 14.1562L20.5312 18.8438ZM4.08594 9.625C4.08594 12.3984 6.3125 14.625 9.08594 14.625C11.8203 14.625 14.0859 12.3984 14.0859 9.625C14.0859 6.89062 11.8203 4.625 9.08594 4.625C6.3125 4.625 4.08594 6.89062 4.08594 9.625Z"/>
</mask>
<path d="M20.5312 18.8438C21.1172 19.4688 21.1172 20.4453 20.5312 21.0703C19.9062 21.6562 18.9297 21.6562 18.3047 21.0703L13.6562 16.3828C12.0547 17.4375 10.1016 17.9844 7.99219 17.7109C4.39844 17.2031 1.50781 14.2734 1.03906 10.7188C0.375 5.40625 4.86719 0.914062 10.1797 1.57812C13.7344 2.04688 16.6641 4.9375 17.1719 8.53125C17.4453 10.6406 16.8984 12.5938 15.8438 14.1562L20.5312 18.8438ZM4.08594 9.625C4.08594 12.3984 6.3125 14.625 9.08594 14.625C11.8203 14.625 14.0859 12.3984 14.0859 9.625C14.0859 6.89062 11.8203 4.625 9.08594 4.625C6.3125 4.625 4.08594 6.89062 4.08594 9.625Z" fill="#FF6F61"/>
<path d="M20.5312 18.8438L20.896 18.5018L20.8905 18.4959L20.8848 18.4902L20.5312 18.8438ZM20.5312 21.0703L20.8732 21.4351L20.885 21.424L20.896 21.4123L20.5312 21.0703ZM18.3047 21.0703L17.9497 21.4224L17.9561 21.4289L17.9627 21.4351L18.3047 21.0703ZM13.6562 16.3828L14.0113 16.0307L13.7231 15.7401L13.3813 15.9652L13.6562 16.3828ZM7.99219 17.7109L7.92223 18.2061L7.92791 18.2068L7.99219 17.7109ZM1.03906 10.7188L0.542912 10.7808L0.543354 10.7841L1.03906 10.7188ZM10.1797 1.57812L10.2451 1.08241L10.2417 1.08199L10.1797 1.57812ZM17.1719 8.53125L17.6678 8.46697L17.667 8.46129L17.1719 8.53125ZM15.8438 14.1562L15.4293 13.8765L15.1986 14.2183L15.4902 14.5098L15.8438 14.1562ZM20.1665 19.1857C20.5721 19.6184 20.5721 20.2957 20.1665 20.7283L20.896 21.4123C21.6623 20.595 21.6623 19.3191 20.896 18.5018L20.1665 19.1857ZM20.1893 20.7055C19.7566 21.1112 19.0793 21.1112 18.6467 20.7055L17.9627 21.4351C18.78 22.2013 20.0559 22.2013 20.8732 21.4351L20.1893 20.7055ZM18.6597 20.7182L14.0113 16.0307L13.3012 16.7349L17.9497 21.4224L18.6597 20.7182ZM13.3813 15.9652C11.8709 16.9599 10.0369 17.4718 8.05646 17.2151L7.92791 18.2068C10.1662 18.4969 12.2385 17.9151 13.9312 16.8004L13.3813 15.9652ZM8.06214 17.2159C4.69013 16.7394 1.9741 13.9849 1.53477 10.6534L0.543354 10.7841C1.04153 14.5619 4.10675 17.6669 7.92223 18.206L8.06214 17.2159ZM1.5352 10.6567C0.911581 5.66777 5.12871 1.45064 10.1177 2.07426L10.2417 1.08199C4.60567 0.377481 -0.161581 5.14473 0.542924 10.7808L1.5352 10.6567ZM10.1143 2.07383C13.4459 2.51316 16.2003 5.22919 16.6768 8.60121L17.667 8.46129C17.1278 4.64581 14.0229 1.58059 10.2451 1.08242L10.1143 2.07383ZM16.676 8.59553C16.9329 10.5771 16.42 12.4089 15.4293 13.8765L16.2582 14.436C17.3769 12.7786 17.9577 10.7042 17.6677 8.46697L16.676 8.59553ZM15.4902 14.5098L20.1777 19.1973L20.8848 18.4902L16.1973 13.8027L15.4902 14.5098ZM3.58594 9.625C3.58594 12.6746 6.03636 15.125 9.08594 15.125V14.125C6.58864 14.125 4.58594 12.1223 4.58594 9.625H3.58594ZM9.08594 15.125C12.0939 15.125 14.5859 12.6771 14.5859 9.625H13.5859C13.5859 12.1198 11.5467 14.125 9.08594 14.125V15.125ZM14.5859 9.625C14.5859 6.61448 12.0965 4.125 9.08594 4.125V5.125C11.5442 5.125 13.5859 7.16677 13.5859 9.625H14.5859ZM9.08594 4.125C6.03382 4.125 3.58594 6.61703 3.58594 9.625H4.58594C4.58594 7.16422 6.59118 5.125 9.08594 5.125V4.125Z" fill="white" mask="url(#path-1-inside-1_3_505)"/>
</svg>
